<svg xmlns="http://www.w3.org/2000/svg" viewBox="0 0 85.44094 49.58376">
  <defs>
    <style>
      .cls-1 {
        fill: #666;
      }
    </style>
  </defs>
  <title>2Asset 2</title>
  <g id="Layer_2" data-name="Layer 2">
    <g id="Layer_1-2" data-name="Layer 1">
      <g id="Group_102" data-name="Group 102">
        <path d="M85.41015,11.87777a19.44748,19.44748,0,0,0-.48322-5.29431A88.93258,88.93258,0,0,1,71.93444,4.06618C51.71777,8.28151,29.44427,12.6288,12.65594,3.393,9.0982,5.08925,5.42919,5.95656,1.301,4.94851A7.80692,7.80692,0,0,0,.05016,9.88576c.133,4.116-.267,8.364.133,12.479.133,1.859,1.328,4.248,2.788,5.048a44.76159,44.76159,0,0,0,11.28406,4.244,130.93587,130.93587,0,0,0,50.313,1.328,106.53293,106.53293,0,0,0,16.594-4.646c3.053-.929,4.514-3.451,4.248-6.77C85.27715,18.37777,85.41015,15.06374,85.41015,11.87777Z"/>
        <path id="Path_13" data-name="Path 13" d="M50.09715,39.22476c2.921-8.363,8.1-11.549,5.974-14.2-3.053-3.85-17.789-3.053-22.3,3.053-3.983,5.443,3.85,10.62,6.77,21.506,2.522-.133,5.177-.266,7.7-.4A32.20739,32.20739,0,0,1,50.09715,39.22476Z"/>
      </g>
      <ellipse class="cls-1" cx="42.54224" cy="6.5146" rx="42.37558" ry="6.51463"/>
    </g>
  </g>
</svg>
