<svg xmlns="http://www.w3.org/2000/svg" xmlns:xlink="http://www.w3.org/1999/xlink" viewBox="0 0 138.02268 247.96959">
  <defs>
    <style>
      .cls-1 {
        fill: #efc847;
      }

      .cls-2, .cls-3 {
        opacity: 0.43;
      }

      .cls-2 {
        fill: url(#linear-gradient);
      }

      .cls-3 {
        fill: url(#linear-gradient-2);
      }

      .cls-4 {
        fill: none;
        stroke: #969393;
        stroke-width: 3px;
      }

      .cls-4, .cls-5, .cls-7 {
        stroke-miterlimit: 10;
      }

      .cls-5 {
        fill: #969393;
        stroke-width: 2px;
      }

      .cls-5, .cls-7 {
        stroke: #7f7e7e;
      }

      .cls-6 {
        fill: #5b5a59;
      }

      .cls-7 {
        fill: #a5a4a4;
      }
    </style>
    <linearGradient id="linear-gradient" x1="-19.90631" y1="109.43621" x2="0.34534" y2="109.43621" gradientTransform="matrix(2.4992, -0.01043, -0.02607, -0.99995, 51.56445, 218.3946)" gradientUnits="userSpaceOnUse">
      <stop offset="0" stop-color="#fff" stop-opacity="0"/>
      <stop offset="1" stop-color="#fff"/>
    </linearGradient>
    <linearGradient id="linear-gradient-2" x1="116.64179" y1="109.48039" x2="136.89345" y2="109.48039" gradientTransform="matrix(3.22197, 0.01043, -0.03361, 0.99995, -297.99237, -1.1077)" gradientUnits="userSpaceOnUse">
      <stop offset="0" stop-opacity="0"/>
      <stop offset="0.87387"/>
    </linearGradient>
  </defs>
  <title>2Asset 1</title>
  <g id="Layer_2" data-name="Layer 2">
    <g id="Layer_1_copy" data-name="Layer 1 copy">
      <rect class="cls-1" x="3.26758" y="1.5" width="131.5" height="215.5" rx="7.41425" ry="7.41425"/>
      <path class="cls-2" d="M1.77479,1.0737H46.76191a0,0,0,0,1,0,0V213.54809a3.52561,3.52561,0,0,1-3.52561,3.52561H1.77479a0,0,0,0,1,0,0v-216A0,0,0,0,1,1.77479,1.0737Z" transform="matrix(-0.99995, 0.01043, -0.01043, -0.99995, 49.67307, 217.88834)"/>
      <path class="cls-3" d="M77.77106,1.68252H131.7654a4.00313,4.00313,0,0,1,4.00313,4.00313V217.68252a0,0,0,0,1,0,0H77.77106a0,0,0,0,1,0,0v-216A0,0,0,0,1,77.77106,1.68252Z" transform="translate(-1.13824 1.11963) rotate(-0.59764)"/>
      <rect class="cls-4" x="2.76758" y="1.5" width="132" height="215" rx="5.66929" ry="5.66929"/>
      <rect class="cls-5" x="54.76758" y="199.5" width="32" height="11.33859" rx="5.66929" ry="5.66929"/>
      <path class="cls-5" d="M135.76758,216.5h-134s-13-25,68-23C69.76758,193.5,147.76758,191.5,135.76758,216.5Z"/>
      <path class="cls-5" d="M90.62356,193.5H48.01167s-4.134-25,21.62394-23C69.63561,170.5,94.43955,168.5,90.62356,193.5Z"/>
      <path class="cls-6" d="M65.50423,247.96959l-.07758-13.734s.51133-37.59467-8.98766-55.25225c0,0-7.32392-16.94791-3.76216-26.36554,0,0,4.26329-13.03483,22.33579-13.13691,0,0,22.79968,4.93007,14.62506,29.55556,0,0-12.15674,23.68366-11.19489,65.84757l.0735,13.01206Z"/>
      <circle class="cls-6" cx="105.26758" cy="205" r="1.5"/>
      <circle class="cls-7" cx="35.26758" cy="206" r="4.5"/>
      <circle class="cls-7" cx="105.26758" cy="205" r="4.5"/>
      <circle class="cls-6" cx="35.26758" cy="196" r="1.5"/>
    </g>
  </g>
</svg>
