<?xml version="1.0" encoding="utf-8"?>
<!-- Generator: Adobe Illustrator 22.1.0, SVG Export Plug-In . SVG Version: 6.00 Build 0)  -->
<svg version="1.1" id="Layer_1" xmlns="http://www.w3.org/2000/svg" xmlns:xlink="http://www.w3.org/1999/xlink" x="0px" y="0px"
	 viewBox="0 0 85.4 53.4" style="enable-background:new 0 0 85.4 53.4;" xml:space="preserve">
<style type="text/css">
	.st0{fill:#666666;}
</style>
<g id="Group_102" transform="translate(0.037 0)">
	<path d="M85.4,15.7c0-2.3-0.1-4-0.5-5.3c-4.4-0.6-8.8-1.3-13-2.5c-20.2,4.2-42.5,8.6-59.3-0.7C9.1,8.9,5.4,9.7,1.3,8.7
		C0.4,10-0.1,11.7,0,13.7c0.1,4.1-0.3,8.4,0.1,12.5c0.1,1.9,1.3,4.2,2.8,5c3.6,1.9,7.3,3.3,11.3,4.2c16.5,3.7,33.6,4.1,50.3,1.3
		c5.6-1.1,11.2-2.7,16.6-4.6c3.1-0.9,4.5-3.5,4.2-6.8C85.2,22.2,85.4,18.9,85.4,15.7z"/>
	<path id="Path_13" d="M50.1,43c2.9-8.4,8.1-11.5,6-14.2C53,25,38.2,25.8,33.7,31.9c-4,5.4,3.8,10.6,6.8,21.5
		c2.5-0.1,5.2-0.3,7.7-0.4C48.3,49.6,48.9,46.2,50.1,43z"/>
</g>
<ellipse class="st0" cx="42.5" cy="10.3" rx="42.4" ry="6.5"/>
</svg>
