<svg xmlns="http://www.w3.org/2000/svg" viewBox="0 0 85.44 53.366">
  <g id="Group_102" data-name="Group 102" transform="translate(0.037 0)">
    <path id="Path_12" data-name="Path 12" d="M45.679,0C53.113,1.062,63.2,2.39,73.026,3.717a24.494,24.494,0,0,1,5.31,1.593c6.239,2.39,7.036,3.584,7.036,10.355,0,3.186-.133,6.5,0,9.691.266,3.319-1.195,5.841-4.248,6.77A106.533,106.533,0,0,1,64.53,36.772a130.935,130.935,0,0,1-50.313-1.328A44.762,44.762,0,0,1,2.933,31.2C1.473,30.4.278,28.011.145,26.152c-.4-4.115,0-8.363-.133-12.479-.133-3.717,1.328-6.239,4.646-7.3A119.33,119.33,0,0,1,22.315,1.726C29.218.8,36.121.664,45.679,0Z" transform="translate(0)"/>
    <path id="Path_13" data-name="Path 13" d="M42,36.484c2.921-8.363,8.1-11.549,5.974-14.2-3.053-3.85-17.789-3.053-22.3,3.053-3.983,5.443,3.85,10.62,6.77,21.506,2.522-.133,5.177-.266,7.7-.4A32.207,32.207,0,0,1,42,36.484Z" transform="translate(8.059 6.528)"/>
  </g>
</svg>
