<?xml version="1.0" encoding="utf-8"?>
<!-- Generator: Adobe Illustrator 22.1.0, SVG Export Plug-In . SVG Version: 6.00 Build 0)  -->
<svg version="1.1" id="Layer_1" xmlns="http://www.w3.org/2000/svg" xmlns:xlink="http://www.w3.org/1999/xlink" x="0px" y="0px"
	 viewBox="0 0 389 433" style="enable-background:new 0 0 389 433;" xml:space="preserve">
<style type="text/css">
	.st0{fill:#5A5A5A;stroke:#5A5A5A;stroke-miterlimit:10;}
	.st1{fill:#5A5A5A;stroke:#5A5A5A;stroke-width:4;stroke-miterlimit:10;}
	.st2{fill:#5A5A5A;stroke:#5A5A5A;stroke-width:2;stroke-linecap:round;stroke-miterlimit:10;}
	.st3{fill:#5A5A5A;stroke:#5A5A5A;stroke-width:0;stroke-miterlimit:10;}
</style>
<g>
	<path class="st0" d="M133.4,352.8c4.4,6.7,6.6,15.1,6.6,25.1c0,14.1-4,25-12.1,32.6c-8.1,7.7-19.5,11.5-34.2,11.5H35.9V260.2h55.9
		c14.2,0,25.2,3.7,33.1,11c7.9,7.3,11.8,17.8,11.8,31.2c0,8.6-1.9,16.1-5.8,22.4c-3.8,6.3-9.2,10.9-16.1,14
		C122.8,341.4,129,346,133.4,352.8z M51.7,332h37.5c10.4,0,18.3-2.4,23.7-7.3c5.3-4.8,8-12,8-21.4c0-18.5-10.6-27.7-31.7-27.7H51.7
		V332z M116.5,399.4c5.1-4.8,7.7-12.1,7.7-21.9c0-19.8-10.6-29.8-31.9-29.8H51.7v58.9h40.7C103.3,406.5,111.3,404.1,116.5,399.4z"/>
	<path class="st0" d="M354.9,422h-17l-17.2-53.9c-2.1-6.7-5-11.1-8.7-13.4c-3.7-2.3-9-3.4-15.7-3.4h-34.8V422h-15.8V260.2h55.3
		c15,0,26.5,3.9,34.5,11.6c8,7.7,12,18.9,12,33.4c0,10.6-2.4,19.5-7.1,26.7c-4.8,7.2-11.6,12.3-20.6,15.3c4,0.8,7.5,2.8,10.4,6
		c2.9,3.3,5.3,7.9,7.2,14L354.9,422z M299.5,335.9c21.4,0,32.1-10.1,32.1-30.5c0-10-2.6-17.5-7.8-22.4c-5.2-4.9-13.3-7.4-24.2-7.4
		h-38.1v60.2H299.5z"/>
</g>
<line class="st1" x1="0.1" y1="225.1" x2="389.3" y2="225.1"/>
<path class="st2" d="M219.9,342.9c0-3.4-6.7-11.5-6.7-11.5c-3.9-2.9-2.2-12-2.2-12c0.6-6.2-5-25-5-25l-3.9-15.8
	c-1.1-3.8-1.1-7.7-1.1-7.7c1.1-0.5,1.1-3.4,1.1-3.4c-0.6-1.4,0-3.8,0-3.8c0.6-3.4-2.2-4.8-2.2-4.8c-8.4-1.9-19.6-1-19.6-1
	c-5.6,1-6.2,2.9-6.2,2.9v4.3l1.1,1c-2.2,3.8,0.6,4.8,0.6,4.8l-9.5,37c-2.8,7.2-1.1,15.4-1.1,15.4c1.1,4.3-3.4,8.6-3.4,8.6
	c-6.2,6.7-7.3,17.3-7.3,17.3l-2.8,56.7c0,8.2,7.3,12.5,7.3,12.5c6.7,6.7,49.9,2.4,49.9,2.4c11.8-1.4,13.5-12,13.5-12v-6.7
	L219.9,342.9z M181.3,275.4c0,0-1.1-3.9,2.2-4.4h10c0,0,2.2,1,1.1,3.4c0,0,0,2,0,3.9c0,0,0.8,8.8,2.1,10.3l3.3,10.3
	c0,0,4.4,17.3,3.9,23.1c0,0-1.1,8.7,2.2,11.4c0,0,5.7,7.6,5.7,10.8l0.3,9.1l-50-0.1l0.1-3.2c0,0,0.9-9.9,6.1-16.1c0,0,3.8-4,2.8-8.1
	c0,0-1.4-7.6,0.9-14.4l8-30.1L181.3,275.4z M213.7,402.8c0,0-1.4,9.9-11.3,11.2c0,0-30.6,4-36.3-2.2c0,0-6.1-4-6.1-11.7l0.2-2.6
	l53.4,0.1l0.1,1.9V402.8z"/>
<g>
	<path class="st3" d="M85.1,86L46,86.4v110.7h-9.9V11h97.1L133,22.2L46,23l0,52.1h39.5L85.1,86z"/>
	<path class="st0" d="M301.2,11c-28.5,0-51.6,41.7-51.6,93c0,51.4,23.1,93,51.6,93c28.5,0,51.6-41.7,51.6-93
		C352.8,52.7,329.7,11,301.2,11z M301.2,189.2c-24.4,0-44.1-37.5-44.1-83.8s19.7-83.8,44.1-83.8c24.4,0,44.1,37.5,44.1,83.8
		S325.5,189.2,301.2,189.2z M181,12.8c-28.5,0-51.6,41.7-51.6,93c0,51.4,23.1,93,51.6,93c28.5,0,51.6-41.7,51.6-93
		C232.6,54.4,209.5,12.8,181,12.8z M181,191c-24.4,0-44.1-37.5-44.1-83.8s19.7-83.8,44.1-83.8c24.4,0,44.1,37.5,44.1,83.8
		S205.4,191,181,191z"/>
</g>
</svg>
