<svg xmlns="http://www.w3.org/2000/svg" xmlns:xlink="http://www.w3.org/1999/xlink" viewBox="0 0 973 1402"><defs><style>.cls-1{fill:#3f3f3f;}.cls-2{fill:#d8d1d1;stroke:url(#linear-gradient);}.cls-2,.cls-3,.cls-4,.cls-5{stroke-miterlimit:10;}.cls-3{fill:none;stroke-width:4px;}.cls-3,.cls-4,.cls-5{stroke:#000;}.cls-4{stroke-linecap:round;stroke-width:2px;}.cls-6{font-size:76px;font-family:ArialMT, Arial;}.cls-7{font-family:Arial-BoldMT, Arial;font-weight:700;}.cls-8{fill:#376d07;}</style><linearGradient id="linear-gradient" x1="69.65" y1="649.62" x2="904.57" y2="649.62" gradientUnits="userSpaceOnUse"><stop offset="0.04" stop-color="#0a0a0a"/><stop offset="0.43" stop-color="#191919"/><stop offset="0.95" stop-color="#636363"/></linearGradient></defs><title>numbermachine3</title><g id="machine"><path class="cls-1" d="M0,1199.28V150.21c0-18.38,7-35.31,18.29-44.44C156.23-5.77,504.4.05,504.4.05S846.29,3.82,956.53,104.44C966.82,113.84,973,130,973,147.33V1198.07c0,21.17-9.25,40.08-23.22,47.73C810.31,1322.12,533.23,1348.13,499,1348.1c-45.51,0-342.82-23.24-476.6-101.54C8.85,1238.63,0,1220,0,1199.28Z"/><path class="cls-2" d="M903.84,1081.34c-.16,32.07-16.19,59.55-38.42,66-153.86,44.8-354.44,52.29-378.33,52.29-26,0-218.93-5.26-378.65-52.12C86.12,1141,70.13,1113.2,70.15,1081c.12-173.05.53-690.35.18-863.11-.06-31.42,15.13-58.74,36.73-66.19C275.52,93.57,465.9,99.42,482.55,100.05c.79,0,1.58,0,2.38,0,18.28-.59,240.39-6.54,382.89,49.42,20.83,8.18,35.24,35,35.2,65.55C902.78,389.73,904.72,905.64,903.84,1081.34Z"/><rect class="cls-1" x="92" y="1221.1" width="76" height="180.9"/><rect class="cls-1" x="802.65" y="1221.1" width="76" height="180.9"/><path d="M434,508c3.62,5.52,5.43,12.43,5.43,20.67,0,11.62-3.29,20.59-10,26.85S413.37,565,401.27,565h-47.7V431.69h46.05c11.69,0,20.75,3.05,27.26,9.06s9.72,14.67,9.72,25.7c0,7.09-1.56,13.26-4.78,18.45a28.79,28.79,0,0,1-13.26,11.54A27.75,27.75,0,0,1,434,508Zm-67.3-17.14h30.89c8.57,0,15.07-2,19.52-6s6.59-9.88,6.59-17.63q0-22.85-26.11-22.81H366.67Zm53.38,55.52c4.2-4,6.34-10,6.34-18,0-16.31-8.73-24.54-26.28-24.54H366.59v48.51h33.52C409.17,552.2,415.76,550.22,420.05,546.35Z"/><path d="M616.41,565h-14l-14.17-44.4c-1.73-5.52-4.12-9.14-7.16-11s-7.42-2.8-12.94-2.8H539.48V565h-13V431.69H572c12.35,0,21.82,3.22,28.41,9.56s9.89,15.57,9.89,27.51c0,8.73-2,16.06-5.85,22a31.65,31.65,0,0,1-17,12.6,15.45,15.45,0,0,1,8.57,4.95c2.39,2.71,4.36,6.5,5.93,11.53Zm-45.63-70.92c17.63,0,26.44-8.32,26.44-25.13,0-8.23-2.14-14.41-6.42-18.45s-11-6.09-19.94-6.09H539.48V494h31.3Z"/><line class="cls-3" x1="324.17" y1="402.78" x2="644.75" y2="402.78"/><path class="cls-4" d="M505.21,499.81c0-2.8-5.51-9.47-5.51-9.47-3.22-2.39-1.82-9.88-1.82-9.88.5-5.11-4.11-20.6-4.11-20.6l-3.22-13a26.09,26.09,0,0,1-.9-6.34c.9-.41.9-2.8.9-2.8a6.26,6.26,0,0,1,0-3.13,3.68,3.68,0,0,0-1.81-4c-6.92-1.56-16.14-.82-16.14-.82-4.62.82-5.11,2.39-5.11,2.39v3.54l.91.82c-1.82,3.13.49,4,.49,4L461.07,471c-2.31,5.93-.91,12.69-.91,12.69.91,3.54-2.8,7.08-2.8,7.08-5.11,5.52-6,14.25-6,14.25L449,551.7c0,6.76,6,10.3,6,10.3,5.52,5.52,41.1,2,41.1,2a12.45,12.45,0,0,0,11.12-9.89v-5.52Zm-31.79-55.6s-.91-3.21,1.81-3.62h8.24a2,2,0,0,1,.91,2.8v3.21s.65,7.25,1.73,8.49l2.71,8.48s3.63,14.25,3.22,19c0,0-.91,7.16,1.81,9.39,0,0,4.69,6.26,4.69,8.89l.25,7.5-41.18-.08.08-2.64s.74-8.15,5-13.26c0,0,3.13-3.3,2.31-6.67a27,27,0,0,1,.74-11.86l6.59-24.8Zm26.69,104.94s-1.16,8.16-9.31,9.23c0,0-25.2,3.29-29.9-1.82a12.13,12.13,0,0,1-5-9.63l.16-2.14,44,.08.08,1.56v2.72Z"/><path d="M394.18,288.21l-32.29.24v91.19h-8.15V226.43h80l-.17,9.23-71.66.74v42.91h32.54Z"/><path class="cls-5" d="M572.18,226.43c-23.47,0-42.5,34.35-42.5,76.6s19,76.61,42.5,76.61,42.5-34.35,42.5-76.61S595.66,226.43,572.18,226.43Zm0,146.78c-20.1,0-36.32-30.89-36.32-69s16.22-69,36.32-69,36.33,30.89,36.33,69S592.2,373.21,572.18,373.21Zm-99-145.3c-23.47,0-42.5,34.35-42.5,76.61s19,76.6,42.5,76.6,42.51-34.35,42.51-76.6S496.65,227.91,473.17,227.91Zm0,146.78c-20.09,0-36.32-30.88-36.32-69s16.23-69,36.32-69,36.33,30.89,36.33,69S493.27,374.69,473.17,374.69Z"/></g><g id="order_text"><text class="cls-6" transform="translate(214.62 891.41)">Ready to order? <tspan class="cls-7"><tspan x="78.13" y="91.2">Press here</tspan></tspan></text></g><g id="button"><circle class="cls-8" cx="484.46" cy="1105.47" r="73.82"/></g></svg>