<svg xmlns="http://www.w3.org/2000/svg" viewBox="0 0 93.35549 59.76361">
  <defs>
    <style>
      .cls-1 {
        fill: #666;
      }
    </style>
  </defs>
  <title>2scrollicon</title>
  <g id="Layer_2" data-name="Layer 2">
    <g id="Layer_1-2" data-name="Layer 1">
      <g>
        <path class="cls-1" d="M58.09982,29.483c0-6.94125,0-13.7777.00005-20.61415,0-.97042-.00992-1.941.003-2.91121A5.8246,5.8246,0,0,1,63.92355.00037a5.75584,5.75584,0,0,1,5.94974,5.81195c.07174,2.5396.01532,5.08275.02367,7.62429.001.31407.04933.628.06494.81376a17.23846,17.23846,0,0,1,3.98265.55307,15.99659,15.99659,0,0,1,3.21155,2.25163c3.36542-1.2754,7.29535.00008,8.38153,4.87644a2.861,2.861,0,0,0,.50549.024c3.97325-.48066,6.908,1.60947,7.13882,5.6502.58663,10.26861-.20155,20.396-4.10416,30.07351-.10335.25628-.21684.50972-.344.75495a2.006,2.006,0,1,1-3.67029-1.59907c.6799-1.9102,1.49629-3.78323,2.02263-5.73465a71.18276,71.18276,0,0,0,2.16094-22.50977c-.09652-1.794-.824-2.78077-1.89715-2.78631-1.04653-.0054-1.81459,1.09053-1.91166,2.78864-.03949.69081.01227,1.38637-.0092,2.07879a1.89546,1.89546,0,0,1-1.89839,2.09575,1.94182,1.94182,0,0,1-2.07231-2.0867c-.04408-2.54085-.01384-5.08295-.0204-7.62451-.00407-1.57749-.62816-2.40966-1.81448-2.44023-1.25458-.03232-1.94744.81891-1.9637,2.47456-.01861,1.89446.01568,3.78954-.013,5.68374-.02167,1.42955-.855,2.32024-2.04687,2.27293a2.02456,2.02456,0,0,1-1.91434-2.27325c-.02426-2.68.00128-5.36044-.01547-8.04056-.01-1.60209-.62685-2.36484-1.86732-2.386-1.22921-.02091-1.89432.771-1.90782,2.34682-.019,2.21794.00274,4.43621-.00859,6.65426-.00876,1.716-.6917,2.58974-1.99453,2.59595-1.301.00621-2.0239-.89544-2.0255-2.58223q-.01-10.536.00534-21.07195a1.99794,1.99794,0,0,0-1.16192-2.14133,1.8334,1.8334,0,0,0-2.57228,1.90418c-.03615,3.60407-.01359,7.20872-.01352,10.81313q.00019,9.63491-.00812,19.26978a4.24951,4.24951,0,0,1-.25172,1.75722,1.97938,1.97938,0,0,1-3.74362-.81793c-.05152-1.10376-.01188-2.21179-.01188-3.31242-1.70839-.11406-2.69908.65387-2.97588,2.52463-.80418,5.43478.15312,10.50938,3.58562,14.90113a49.983,49.983,0,0,0,4.49942,4.68957c1.0987,1.07947,1.37541,2.21216.61637,3.1403-.79608.97343-2.05727.9181-3.2808-.10889C55.305,54.50462,51.60153,49.187,51.061,42.16064a30.37732,30.37732,0,0,1,.27842-7.01781c.49936-3.15544,2.50657-4.89336,5.64625-5.45444C57.30078,29.63209,57.61525,29.57242,58.09982,29.483Z"/>
        <path class="cls-1" d="M6.91,22.22752c.45684.48712.65608.67942.83228.89091A2.03866,2.03866,0,0,1,7.795,25.98335a1.958,1.958,0,0,1-2.86009-.00663Q2.71383,23.89151.63352,21.65811a1.94775,1.94775,0,0,1,.09274-2.95324c1.28536-1.32694,2.6029-2.62295,3.91715-3.92159,1.05344-1.04091,2.18-1.184,3.05233-.41133.93652.82958.8792,1.93914-.15879,3.14586-.11208.13029-.20758.27484-.51627.68746.77212,0,1.29415.0001,1.81618,0q18.15418-.00385,36.30835-.00388a13.48359,13.48359,0,0,1,2.07063.10115A1.7872,1.7872,0,0,1,48.83848,20.226a1.89,1.89,0,0,1-1.75086,1.98008,7.21647,7.21647,0,0,1-1.24486.02468Q27.27288,22.23,8.703,22.22753C8.21382,22.22748,7.72462,22.22752,6.91,22.22752Z"/>
        <path class="cls-1" d="M43.2531,10.58124c-5.23345,0-10.168.00013-15.10258,0q-12.13121-.00039-24.26239.0088a2.20174,2.20174,0,0,1-2.3179-1.144c-.6765-1.44631.32833-2.79117,2.1098-2.795,5.86917-.01248,11.73838-.0033,17.60758-.00251q10.19025.00138,20.38048.00265c.45266.00006.90531,0,1.64991,0-.45123-.52291-.7606-.82821-1.00736-1.17772a1.8846,1.8846,0,0,1,.16767-2.63745,1.77042,1.77042,0,0,1,2.61862-.11452Q47.44,4.87876,49.62664,7.20376a1.98,1.98,0,0,1-.15615,2.95876c-1.28773,1.326-2.59971,2.62882-3.91817,3.9244-1.07464,1.056-2.16154,1.15983-3.05408.32954-.858-.79817-.81615-1.94151.1147-3.08253C42.75442,11.16051,42.90272,10.99266,43.2531,10.58124Z"/>
      </g>
    </g>
  </g>
</svg>
